<svg width="719" height="200" viewBox="0 0 719 200" fill="none" xmlns="http://www.w3.org/2000/svg">
<g clip-path="url(#clip0_40_385)">
<path d="M293.763 69.0008C293.763 72.0008 293.234 74.7579 292.19 77.2865C291.147 79.8008 289.717 81.9722 287.873 83.8008C286.029 85.6294 283.856 87.0579 281.34 88.0865C278.81 89.1151 276.08 89.6436 273.121 89.6436H248.977C248.333 89.6436 247.733 89.5293 247.19 89.3008C246.632 89.0722 246.16 88.7579 245.76 88.3579C245.346 87.9579 245.045 87.4865 244.817 86.9293C244.588 86.3865 244.474 85.7865 244.474 85.1436V44.8151C244.474 44.2008 244.588 43.6151 244.817 43.0579C245.045 42.5151 245.36 42.0294 245.76 41.6151C246.16 41.2008 246.632 40.8865 247.19 40.6579C247.733 40.4294 248.333 40.3008 248.977 40.3008H273.121C276.08 40.3008 278.825 40.8294 281.34 41.8579C283.856 42.8865 286.044 44.3151 287.873 46.1294C289.717 47.9579 291.147 50.1294 292.19 52.6579C293.234 55.1865 293.763 57.9436 293.763 60.9294V68.9722V69.0008ZM284.814 60.9579C284.814 59.2151 284.528 57.6151 283.971 56.1722C283.413 54.7436 282.613 53.5008 281.583 52.4865C280.554 51.4722 279.311 50.6865 277.895 50.1151C276.452 49.5579 274.865 49.2722 273.121 49.2722H253.408V80.6865H273.121C274.865 80.6865 276.452 80.4151 277.895 79.8579C279.325 79.2865 280.554 78.5008 281.583 77.4722C282.613 76.4579 283.413 75.2294 283.971 73.8008C284.528 72.3722 284.814 70.7722 284.814 69.0008V60.9579V60.9579Z" fill="white"/>
<path d="M349.828 56.8287C349.828 58.8716 349.571 60.6859 349.056 62.2859C348.542 63.8859 347.87 65.3145 347.012 66.5287C346.169 67.7573 345.168 68.8002 344.039 69.6716C342.895 70.5287 341.723 71.2573 340.522 71.8145C339.307 72.3859 338.078 72.7859 336.82 73.043C335.576 73.3002 334.39 73.4145 333.289 73.4145H329.672V89.6145H320.652V73.4145H317.064C315.963 73.4145 314.791 73.2859 313.547 73.043C312.304 72.7859 311.06 72.3859 309.831 71.8145C308.601 71.2573 307.429 70.5287 306.314 69.6716C305.185 68.7859 304.198 67.7573 303.327 66.5287C302.469 65.3002 301.783 63.8859 301.268 62.2716C300.753 60.6573 300.496 58.8287 300.496 56.8287V40.3145H309.445V56.8287C309.445 57.9859 309.631 59.043 309.988 59.9716C310.345 60.9002 310.874 61.7002 311.532 62.3716C312.204 63.0287 313.004 63.543 313.962 63.9002C314.92 64.2573 315.978 64.4287 317.15 64.4287H333.289C334.132 64.2859 335.004 64.1145 335.905 63.9002C336.805 63.6859 337.62 63.3002 338.349 62.7716C339.093 62.243 339.693 61.5145 340.179 60.5716C340.665 59.6287 340.908 58.3859 340.908 56.8287V40.3145H349.842V56.8287H349.828Z" fill="white"/>
<path d="M407.051 85.1292C407.051 85.7721 406.937 86.3578 406.694 86.915C406.451 87.4578 406.122 87.9435 405.736 88.3435C405.336 88.7435 404.85 89.0578 404.307 89.2864C403.749 89.515 403.163 89.6292 402.548 89.6292C401.991 89.6292 401.433 89.5292 400.876 89.315C400.318 89.1007 399.804 88.7721 399.389 88.315L366.668 54.8864V89.615H357.733V44.7578C357.733 43.8435 357.991 43.015 358.505 42.2721C359.034 41.5292 359.692 40.9721 360.492 40.6007C361.336 40.2578 362.222 40.1721 363.108 40.3435C364.009 40.515 364.781 40.9292 365.41 41.6007L398.088 75.0435V40.315H407.023L407.051 85.1292V85.1292Z" fill="white"/>
<path d="M463.659 89.6287H454.711V77.5144H423.262V89.6287H414.327V64.9716C414.327 61.3716 414.942 58.0573 416.186 55.043C417.415 52.0145 419.145 49.4145 421.346 47.243C423.547 45.0573 426.149 43.3716 429.151 42.143C432.167 40.9287 435.441 40.3145 439 40.3145H459.156C459.771 40.3145 460.357 40.4287 460.915 40.6573C461.458 40.8859 461.944 41.2002 462.358 41.6145C462.773 42.0287 463.087 42.5145 463.316 43.0716C463.545 43.6145 463.659 44.2002 463.659 44.8145V89.6145V89.6287ZM423.262 68.5859H454.711V49.2716H439C438.714 49.2716 438.143 49.3145 437.256 49.4002C436.37 49.4859 435.355 49.6859 434.197 50.0002C433.039 50.3287 431.824 50.8145 430.538 51.4859C429.251 52.143 428.065 53.0573 427.007 54.243C425.92 55.4145 425.048 56.8716 424.334 58.6287C423.633 60.3859 423.276 62.5002 423.276 65.0002V68.6145L423.262 68.5859Z" fill="white"/>
<path d="M529.86 89.6289H520.839V60.2575L505.029 87.5718C504.643 88.2861 504.1 88.8146 503.4 89.1861C502.699 89.5575 501.956 89.7289 501.141 89.7289C500.355 89.7289 499.64 89.5575 498.954 89.1861C498.282 88.8146 497.753 88.2718 497.367 87.5718L481.385 60.2575V89.6289H472.437V44.7575C472.437 43.7289 472.737 42.8146 473.351 42.0146C473.952 41.2146 474.752 40.6718 475.739 40.4003C476.21 40.2861 476.696 40.2432 477.182 40.2861C477.669 40.3146 478.126 40.4289 478.569 40.6003C479.012 40.7718 479.427 41.0146 479.798 41.3289C480.156 41.6432 480.47 42.0146 480.728 42.4432L501.084 77.2003L521.454 42.4432C521.983 41.5718 522.712 40.9432 523.627 40.5861C524.556 40.2146 525.528 40.1575 526.543 40.4146C527.515 40.6861 528.301 41.2289 528.916 42.0289C529.531 42.8289 529.845 43.7575 529.845 44.7718V89.6432L529.86 89.6289Z" fill="white"/>
<path d="M546.913 40.3291H537.979V89.6291H546.913V40.3291Z" fill="white"/>
<path d="M599.819 89.6291H567.569C566.74 89.6291 565.854 89.5291 564.896 89.3291C563.938 89.1291 563.009 88.8291 562.066 88.4148C561.136 88.0005 560.25 87.472 559.407 86.8148C558.549 86.1577 557.806 85.372 557.148 84.4434C556.491 83.5148 555.976 82.4434 555.59 81.2148C555.204 80.0005 555.004 78.6148 555.004 77.072V52.872C555.004 52.0577 555.104 51.1577 555.304 50.2005C555.504 49.2577 555.804 48.3148 556.219 47.3862C556.634 46.4577 557.162 45.572 557.834 44.7291C558.492 43.8862 559.292 43.1291 560.222 42.472C561.151 41.8148 562.209 41.3005 563.424 40.9148C564.639 40.5148 566.011 40.3291 567.569 40.3291H599.819V49.2577H567.569C566.397 49.2577 565.496 49.572 564.882 50.1862C564.253 50.8148 563.953 51.7291 563.953 52.9291V77.0577C563.953 78.2005 564.267 79.1005 564.896 79.7148C565.525 80.3434 566.411 80.6577 567.569 80.6577H599.819V89.6005V89.6291Z" fill="white"/>
<path d="M293.791 145.129C293.791 146.886 293.577 148.472 293.119 149.886C292.676 151.3 292.076 152.543 291.347 153.614C290.604 154.7 289.76 155.6 288.76 156.372C287.773 157.129 286.758 157.743 285.7 158.229C284.643 158.714 283.57 159.072 282.47 159.3C281.383 159.529 280.354 159.643 279.396 159.643H244.874V150.7H279.396C281.126 150.7 282.455 150.186 283.399 149.186C284.357 148.172 284.843 146.814 284.843 145.129C284.843 144.3 284.714 143.543 284.457 142.857C284.199 142.157 283.842 141.572 283.37 141.072C282.899 140.557 282.327 140.172 281.641 139.9C280.954 139.629 280.225 139.486 279.382 139.486H258.797C257.353 139.486 255.781 139.229 254.108 138.714C252.436 138.2 250.892 137.372 249.448 136.214C248.019 135.072 246.818 133.572 245.86 131.714C244.902 129.857 244.431 127.586 244.431 124.914C244.431 122.229 244.902 119.957 245.86 118.114C246.818 116.272 248.004 114.772 249.448 113.6C250.878 112.443 252.436 111.6 254.108 111.086C255.781 110.572 257.353 110.314 258.797 110.314H289.26V119.257H258.797C257.096 119.257 255.767 119.772 254.823 120.814C253.865 121.843 253.394 123.214 253.394 124.914C253.394 126.629 253.865 127.986 254.823 128.986C255.781 129.986 257.096 130.486 258.797 130.486H279.439C280.411 130.5 281.426 130.643 282.513 130.886C283.599 131.129 284.657 131.5 285.729 132C286.801 132.514 287.816 133.143 288.774 133.914C289.746 134.686 290.589 135.614 291.347 136.686C292.09 137.772 292.676 139 293.119 140.4C293.548 141.8 293.763 143.372 293.763 145.143L293.791 145.129Z" fill="white"/>
<path d="M353.03 139.7C353.03 142.715 352.515 145.472 351.486 147.986C350.457 150.515 349.027 152.686 347.183 154.529C345.339 156.372 343.166 157.786 340.665 158.8C338.163 159.815 335.419 160.329 332.46 160.329H320.337C317.378 160.329 314.634 159.815 312.103 158.8C309.573 157.786 307.4 156.357 305.571 154.529C303.741 152.686 302.297 150.515 301.253 147.986C300.21 145.457 299.695 142.715 299.695 139.7V130.286C299.695 127.3 300.21 124.543 301.253 122.015C302.297 119.472 303.741 117.3 305.571 115.472C307.4 113.657 309.587 112.215 312.103 111.186C314.634 110.157 317.364 109.629 320.337 109.629H332.46C335.419 109.629 338.163 110.157 340.665 111.186C343.181 112.215 345.354 113.657 347.183 115.472C349.027 117.3 350.457 119.472 351.486 122.015C352.515 124.543 353.03 127.3 353.03 130.286V139.7ZM344.081 130.286C344.081 128.515 343.795 126.915 343.238 125.486C342.68 124.057 341.894 122.829 340.865 121.815C339.85 120.8 338.606 120 337.177 119.443C335.747 118.886 334.161 118.6 332.46 118.6H320.337C318.593 118.6 317.007 118.886 315.563 119.443C314.133 120 312.89 120.8 311.86 121.815C310.831 122.829 310.031 124.057 309.473 125.486C308.916 126.915 308.63 128.515 308.63 130.286V139.7C308.63 141.472 308.901 143.072 309.473 144.5C310.045 145.929 310.831 147.157 311.86 148.186C312.89 149.2 314.133 149.986 315.563 150.557C316.992 151.115 318.593 151.4 320.337 151.4H332.388C334.132 151.4 335.719 151.115 337.148 150.557C338.578 149.986 339.821 149.2 340.851 148.186C341.88 147.172 342.666 145.943 343.238 144.5C343.81 143.072 344.081 141.472 344.081 139.7V130.286Z" fill="white"/>
<path d="M407.208 159.658H366.382C365.753 159.658 365.152 159.543 364.595 159.315C364.037 159.086 363.566 158.772 363.165 158.372C362.765 157.972 362.451 157.486 362.222 156.943C362.008 156.401 361.879 155.801 361.879 155.158V110.329H370.828V150.715H407.208V159.658V159.658Z" fill="white"/>
<path d="M463.673 155.144C463.673 155.786 463.559 156.386 463.33 156.929C463.101 157.486 462.772 157.958 462.372 158.358C461.958 158.758 461.471 159.072 460.928 159.301C460.371 159.529 459.785 159.644 459.17 159.644H439C437.098 159.644 435.169 159.429 433.225 159.029C431.28 158.615 429.379 157.986 427.564 157.115C425.748 156.258 424.033 155.158 422.432 153.829C420.816 152.501 419.416 150.915 418.215 149.101C417 147.272 416.056 145.186 415.37 142.829C414.67 140.486 414.341 137.858 414.341 134.972V110.301H423.289V134.972C423.289 137.487 423.633 139.629 424.347 141.372C425.048 143.115 425.934 144.572 427.006 145.744C428.093 146.915 429.279 147.829 430.551 148.501C431.838 149.172 433.053 149.658 434.211 149.986C435.369 150.301 436.384 150.501 437.27 150.586C438.156 150.658 438.728 150.701 439 150.701H454.739V110.315H463.673V155.144V155.144Z" fill="white"/>
<path d="M520.754 119.257H501.027V159.657H492.078V119.257H472.322V110.314H520.754V119.257Z" fill="white"/>
<path d="M538.393 110.314H529.459V159.643H538.393V110.314Z" fill="white"/>
<path d="M601.549 139.7C601.549 142.715 601.02 145.472 599.991 147.986C598.961 150.515 597.532 152.686 595.688 154.529C593.844 156.357 591.685 157.786 589.169 158.8C586.653 159.815 583.923 160.329 580.964 160.329H568.842C565.883 160.329 563.138 159.815 560.608 158.8C558.092 157.786 555.905 156.357 554.075 154.529C552.231 152.686 550.802 150.515 549.758 147.986C548.714 145.457 548.186 142.715 548.186 139.7V130.286C548.186 127.3 548.7 124.543 549.758 122.015C550.802 119.472 552.231 117.3 554.075 115.472C555.905 113.657 558.092 112.215 560.608 111.186C563.138 110.157 565.868 109.629 568.842 109.629H580.964C583.923 109.629 586.668 110.157 589.169 111.186C591.685 112.215 593.844 113.657 595.688 115.472C597.532 117.3 598.961 119.472 599.991 122.015C601.02 124.543 601.549 127.3 601.549 130.286V139.7ZM592.6 130.286C592.6 128.515 592.329 126.915 591.757 125.486C591.185 124.057 590.399 122.829 589.384 121.815C588.369 120.8 587.139 120 585.71 119.443C584.266 118.886 582.694 118.6 580.978 118.6H568.856C567.112 118.6 565.525 118.886 564.082 119.443C562.652 120 561.423 120.8 560.393 121.815C559.364 122.829 558.564 124.057 558.006 125.486C557.434 126.915 557.163 128.515 557.163 130.286V139.7C557.163 141.472 557.434 143.072 558.006 144.5C558.578 145.929 559.364 147.157 560.393 148.186C561.423 149.2 562.652 149.986 564.082 150.557C565.525 151.115 567.112 151.4 568.856 151.4H580.907C582.651 151.4 584.238 151.115 585.667 150.557C587.097 149.986 588.34 149.2 589.369 148.186C590.399 147.172 591.185 145.943 591.757 144.5C592.329 143.072 592.6 141.472 592.6 139.7V130.286V130.286Z" fill="white"/>
<path d="M661.474 156.057C661.474 156.7 661.345 157.286 661.102 157.843C660.859 158.386 660.545 158.857 660.144 159.271C659.744 159.671 659.258 159.986 658.7 160.214C658.157 160.443 657.571 160.557 656.956 160.557C656.413 160.557 655.841 160.457 655.284 160.243C654.712 160.043 654.226 159.7 653.797 159.243L621.09 125.128V159.857H612.142V114.357C612.142 113.428 612.399 112.614 612.914 111.857C613.442 111.1 614.1 110.557 614.901 110.186C615.744 109.843 616.616 109.757 617.517 109.928C618.417 110.1 619.189 110.514 619.832 111.171L652.539 145.271V110.514H661.488V156.028L661.474 156.057Z" fill="white"/>
<path d="M718.868 145.129C718.868 146.886 718.639 148.472 718.182 149.886C717.724 151.3 717.153 152.543 716.409 153.614C715.68 154.7 714.808 155.6 713.822 156.372C712.85 157.129 711.82 157.743 710.763 158.229C709.705 158.714 708.633 159.072 707.532 159.3C706.446 159.529 705.416 159.643 704.459 159.643H669.936V150.7H704.459C706.188 150.7 707.518 150.186 708.475 149.186C709.433 148.172 709.891 146.814 709.891 145.129C709.891 144.3 709.776 143.543 709.519 142.857C709.262 142.157 708.904 141.572 708.433 141.072C707.961 140.557 707.389 140.172 706.717 139.9C706.031 139.629 705.288 139.486 704.459 139.486H683.874C682.43 139.486 680.872 139.229 679.185 138.714C677.512 138.2 675.954 137.372 674.525 136.214C673.081 135.072 671.894 133.572 670.951 131.714C669.993 129.857 669.521 127.586 669.521 124.914C669.521 122.229 670.008 119.957 670.951 118.114C671.894 116.272 673.081 114.772 674.525 113.6C675.954 112.443 677.512 111.6 679.185 111.086C680.872 110.572 682.43 110.314 683.874 110.314H714.336V119.257H683.874C682.173 119.257 680.843 119.772 679.9 120.814C678.942 121.843 678.456 123.214 678.456 124.914C678.456 126.629 678.942 127.986 679.9 128.986C680.843 129.986 682.173 130.486 683.874 130.486H704.53C705.488 130.5 706.517 130.643 707.589 130.886C708.676 131.129 709.733 131.5 710.806 132C711.892 132.514 712.893 133.143 713.865 133.914C714.822 134.686 715.68 135.614 716.423 136.686C717.167 137.772 717.767 139 718.196 140.4C718.639 141.8 718.868 143.372 718.868 145.143V145.129Z" fill="white"/>
<path d="M51.3191 137.857H7.43341C2.64458 126.186 0 113.4 0 100C0 86.6003 2.64458 73.8146 7.43341 62.1289H51.3191C55.5219 62.1289 59.3386 62.8146 62.8123 64.1575C66.2574 65.5289 69.2165 67.4289 71.7181 69.8718C74.2197 72.3432 76.1353 75.3146 77.479 78.7718C78.837 82.2718 79.5089 86.1003 79.5089 90.3146V109.7C79.5089 113.957 78.837 117.8 77.479 121.257C76.1353 124.715 74.2197 127.657 71.7181 130.1C69.2165 132.572 66.2574 134.472 62.8123 135.843C59.3386 137.2 55.5219 137.857 51.3191 137.857V137.857Z" fill="white"/>
<path d="M102.481 59.3571C100.208 63.7143 99.0789 69.0571 99.0504 75.3857C98.55 73.6714 97.9639 72 97.2921 70.3714C94.7904 64.2714 91.331 59.0429 86.8996 54.6286C82.4681 50.2429 77.2219 46.8143 71.1465 44.3286C65.0568 41.8429 58.4668 40.5714 51.3193 40.5714H19.5986C37.8105 15.9571 67.0724 0 100.065 0C133.058 0 162.32 15.9571 180.532 40.5714H133.616C130.142 40.5714 126.368 41.1857 122.337 42.4429C118.306 43.6714 114.575 45.7 111.115 48.4857C107.656 51.2857 104.768 54.9 102.481 59.3571Z" fill="white"/>
<path d="M195.399 118.971C195.999 120.628 196.314 122.457 196.314 124.442C196.314 128.528 195.17 131.785 192.854 134.228C190.567 136.642 187.365 137.871 183.205 137.871H100.065V159.414H180.546C162.334 184.028 133.072 200 100.065 200C67.0581 200 37.8105 184.042 19.5986 159.428H51.3193C58.4668 159.428 65.0568 158.171 71.1465 155.685C77.2219 153.2 82.4681 149.757 86.8996 145.357C91.331 140.971 94.7904 135.728 97.2921 129.657C99.8223 123.571 101.08 116.914 101.08 109.7V90.3138C101.08 89.8138 101.08 89.3138 101.066 88.8281C101.466 89.9853 101.938 91.071 102.481 92.1138C104.768 96.5996 107.656 100.2 111.115 102.971C114.575 105.742 118.306 107.742 122.337 108.985C126.368 110.242 130.142 110.857 133.616 110.857H183.205C185.206 110.857 186.993 111.185 188.637 111.842C190.267 112.5 191.653 113.442 192.783 114.657C193.912 115.871 194.784 117.3 195.399 118.971V118.971Z" fill="white"/>
<path d="M199.916 93.5C199.444 93.2428 198.972 93.0143 198.501 92.7857C195.928 91.5857 193.354 90.6714 190.753 90.1C188.165 89.5285 185.721 89.1857 183.362 89.1285H133.616C129.527 89.1285 126.339 87.9285 124.038 85.5285C121.736 83.1285 120.593 79.8571 120.593 75.7285C120.593 71.6 121.736 68.3428 124.038 65.8571C126.339 63.3571 129.527 62.1143 133.616 62.1143H192.697C196.714 71.9 199.215 82.4571 199.916 93.5V93.5Z" fill="white"/>
</g>
<defs>
<clipPath id="clip0_40_385">
<rect width="718.868" height="200" fill="white"/>
</clipPath>
</defs>
</svg>
